<svg width="306" height="88" viewBox="0 0 306 88" fill="none" xmlns="http://www.w3.org/2000/svg">
<path d="M103 71.5C117 62.5 131.5 18.5 147 8.5" stroke="#6CEDED" stroke-width="8"/>
<path d="M201 10.0001C199 -0.999865 186 11.5002 183.5 17" stroke="#6CEDED" stroke-width="8"/>
<path d="M111.796 33.5602C123.392 9.20444 110.83 -1.3278 92.4704 8.87523C79.4405 16.1163 53.817 50.3459 68.3127 75.3597C81.5185 89.1834 97.3012 80.2969 111.796 61.8655M241.5 8.87523C241.5 33.5602 228.5 81.5 205.5 81.5C180.5 81.5 200.5 47 200.5 8.87523M184.5 8.87523C184.5 26.9775 180 81.5 150 81.5C125 81.5 143.5 48 147 8.87523" stroke="#F69840" stroke-width="10" stroke-linecap="round"/>
<g filter="url(#filter0_d_485_119)">
<path d="M11.3949 30.3636L18.0746 51.3608H18.331L25.0241 30.3636H31.5014L21.9744 58H14.4446L4.90412 30.3636H11.3949ZM38.3295 58.3913C37.0071 58.3913 35.8286 58.1619 34.794 57.7031C33.7595 57.2353 32.9408 56.5471 32.3381 55.6385C31.7443 54.7209 31.4474 53.5784 31.4474 52.2109C31.4474 51.0594 31.6589 50.0923 32.0817 49.3097C32.5045 48.527 33.0803 47.8973 33.8089 47.4205C34.5376 46.9437 35.3653 46.5838 36.2919 46.3409C37.2275 46.098 38.2081 45.9271 39.2337 45.8281C40.4392 45.7022 41.4107 45.5852 42.1484 45.4773C42.8861 45.3603 43.4214 45.1894 43.7543 44.9645C44.0871 44.7396 44.2536 44.4067 44.2536 43.9659V43.8849C44.2536 43.0303 43.9837 42.3691 43.4439 41.9013C42.9131 41.4335 42.1574 41.1996 41.1768 41.1996C40.1423 41.1996 39.3191 41.429 38.7074 41.8878C38.0956 42.3376 37.6908 42.9044 37.4929 43.5881L32.1761 43.1562C32.446 41.8968 32.9768 40.8082 33.7685 39.8906C34.5601 38.964 35.5812 38.2533 36.8317 37.7585C38.0911 37.2547 39.5485 37.0028 41.2038 37.0028C42.3554 37.0028 43.4574 37.1378 44.5099 37.4077C45.5715 37.6776 46.5116 38.0959 47.3303 38.6626C48.1579 39.2294 48.8101 39.9581 49.2869 40.8487C49.7637 41.7303 50.0021 42.7874 50.0021 44.0199V58H44.5504V55.1257H44.3885C44.0556 55.7734 43.6103 56.3447 43.0526 56.8395C42.4948 57.3253 41.8246 57.7076 41.0419 57.9865C40.2592 58.2564 39.3551 58.3913 38.3295 58.3913ZM39.9759 54.424C40.8215 54.424 41.5682 54.2576 42.2159 53.9247C42.8636 53.5829 43.3719 53.1241 43.7408 52.5483C44.1096 51.9725 44.294 51.3203 44.294 50.5916V48.392C44.1141 48.509 43.8667 48.617 43.5518 48.7159C43.246 48.8059 42.8996 48.8913 42.5128 48.9723C42.1259 49.0443 41.7391 49.1117 41.3523 49.1747C40.9654 49.2287 40.6146 49.2782 40.2997 49.3232C39.625 49.4221 39.0357 49.5795 38.532 49.7955C38.0282 50.0114 37.6368 50.3037 37.358 50.6726C37.0791 51.0324 36.9396 51.4822 36.9396 52.022C36.9396 52.8047 37.223 53.4029 37.7898 53.8168C38.3655 54.2216 39.0942 54.424 39.9759 54.424ZM54.462 58V37.2727H59.9407V40.9297H60.1836C60.6154 39.7152 61.3351 38.7571 62.3427 38.0554C63.3503 37.3537 64.5558 37.0028 65.9592 37.0028C67.3806 37.0028 68.5906 37.3582 69.5891 38.0689C70.5877 38.7706 71.2534 39.7242 71.5863 40.9297H71.8022C72.225 39.7422 72.9897 38.7931 74.0962 38.0824C75.2118 37.3627 76.5297 37.0028 78.0501 37.0028C79.9843 37.0028 81.5541 37.6191 82.7596 38.8516C83.9741 40.075 84.5813 41.8113 84.5813 44.0604V58H78.8462V45.1939C78.8462 44.0424 78.5404 43.1787 77.9286 42.603C77.3169 42.0272 76.5522 41.7393 75.6346 41.7393C74.591 41.7393 73.7769 42.0722 73.1921 42.7379C72.6074 43.3946 72.315 44.2628 72.315 45.3423V58H66.7418V45.0724C66.7418 44.0559 66.4495 43.2462 65.8647 42.6435C65.2889 42.0407 64.5288 41.7393 63.5842 41.7393C62.9454 41.7393 62.3697 41.9013 61.8569 42.2251C61.3531 42.54 60.9528 42.9853 60.6559 43.5611C60.359 44.1278 60.2106 44.7936 60.2106 45.5582V58H54.462ZM98.4872 58.4048C96.3911 58.4048 94.5784 57.9595 93.049 57.0689C91.5286 56.1693 90.3546 54.9188 89.527 53.3175C88.6993 51.7071 88.2855 49.8404 88.2855 47.7173C88.2855 45.5762 88.6993 43.705 89.527 42.1037C90.3546 40.4934 91.5286 39.2429 93.049 38.3523C94.5784 37.4527 96.3911 37.0028 98.4872 37.0028C100.583 37.0028 102.392 37.4527 103.912 38.3523C105.441 39.2429 106.62 40.4934 107.447 42.1037C108.275 43.705 108.689 45.5762 108.689 47.7173C108.689 49.8404 108.275 51.7071 107.447 53.3175C106.62 54.9188 105.441 56.1693 103.912 57.0689C102.392 57.9595 100.583 58.4048 98.4872 58.4048ZM98.5142 53.9517C99.4678 53.9517 100.264 53.6818 100.903 53.142C101.541 52.5933 102.023 51.8466 102.347 50.902C102.679 49.9574 102.846 48.8823 102.846 47.6768C102.846 46.4714 102.679 45.3963 102.347 44.4517C102.023 43.5071 101.541 42.7604 100.903 42.2116C100.264 41.6629 99.4678 41.3885 98.5142 41.3885C97.5516 41.3885 96.742 41.6629 96.0852 42.2116C95.4375 42.7604 94.9472 43.5071 94.6143 44.4517C94.2905 45.3963 94.1286 46.4714 94.1286 47.6768C94.1286 48.8823 94.2905 49.9574 94.6143 50.902C94.9472 51.8466 95.4375 52.5933 96.0852 53.142C96.742 53.6818 97.5516 53.9517 98.5142 53.9517ZM129.673 43.1832L124.41 43.5071C124.32 43.0573 124.126 42.6525 123.83 42.2926C123.533 41.9238 123.141 41.6314 122.656 41.4155C122.179 41.1906 121.607 41.0781 120.942 41.0781C120.051 41.0781 119.3 41.267 118.688 41.6449C118.076 42.0137 117.771 42.5085 117.771 43.1293C117.771 43.6241 117.969 44.0424 118.364 44.3842C118.76 44.7261 119.439 45.0005 120.402 45.2074L124.153 45.9631C126.169 46.3769 127.671 47.0426 128.661 47.9602C129.65 48.8778 130.145 50.0833 130.145 51.5767C130.145 52.9351 129.745 54.1271 128.944 55.1527C128.152 56.1783 127.064 56.9789 125.678 57.5547C124.302 58.1214 122.714 58.4048 120.915 58.4048C118.171 58.4048 115.985 57.8336 114.357 56.6911C112.737 55.5395 111.788 53.9742 111.509 51.995L117.163 51.6982C117.334 52.5348 117.748 53.1735 118.405 53.6143C119.062 54.0462 119.903 54.2621 120.928 54.2621C121.936 54.2621 122.746 54.0687 123.357 53.6818C123.978 53.286 124.293 52.7777 124.302 52.157C124.293 51.6352 124.072 51.2079 123.641 50.875C123.209 50.5331 122.543 50.2723 121.643 50.0923L118.054 49.3771C116.03 48.9723 114.523 48.2706 113.533 47.272C112.553 46.2734 112.062 45.0005 112.062 43.4531C112.062 42.1217 112.422 40.9747 113.142 40.0121C113.871 39.0495 114.892 38.3073 116.205 37.7855C117.528 37.2637 119.075 37.0028 120.847 37.0028C123.465 37.0028 125.525 37.5561 127.028 38.6626C128.539 39.7692 129.421 41.276 129.673 43.1832ZM148.47 58.3913C147.148 58.3913 145.969 58.1619 144.935 57.7031C143.9 57.2353 143.081 56.5471 142.479 55.6385C141.885 54.7209 141.588 53.5784 141.588 52.2109C141.588 51.0594 141.799 50.0923 142.222 49.3097C142.645 48.527 143.221 47.8973 143.95 47.4205C144.678 46.9437 145.506 46.5838 146.433 46.3409C147.368 46.098 148.349 45.9271 149.374 45.8281C150.58 45.7022 151.551 45.5852 152.289 45.4773C153.027 45.3603 153.562 45.1894 153.895 44.9645C154.228 44.7396 154.394 44.4067 154.394 43.9659V43.8849C154.394 43.0303 154.124 42.3691 153.585 41.9013C153.054 41.4335 152.298 41.1996 151.317 41.1996C150.283 41.1996 149.46 41.429 148.848 41.8878C148.236 42.3376 147.831 42.9044 147.634 43.5881L142.317 43.1562C142.587 41.8968 143.117 40.8082 143.909 39.8906C144.701 38.964 145.722 38.2533 146.972 37.7585C148.232 37.2547 149.689 37.0028 151.344 37.0028C152.496 37.0028 153.598 37.1378 154.651 37.4077C155.712 37.6776 156.652 38.0959 157.471 38.6626C158.299 39.2294 158.951 39.9581 159.428 40.8487C159.904 41.7303 160.143 42.7874 160.143 44.0199V58H154.691V55.1257H154.529C154.196 55.7734 153.751 56.3447 153.193 56.8395C152.635 57.3253 151.965 57.7076 151.183 57.9865C150.4 58.2564 149.496 58.3913 148.47 58.3913ZM150.116 54.424C150.962 54.424 151.709 54.2576 152.357 53.9247C153.004 53.5829 153.513 53.1241 153.881 52.5483C154.25 51.9725 154.435 51.3203 154.435 50.5916V48.392C154.255 48.509 154.007 48.617 153.692 48.7159C153.387 48.8059 153.04 48.8913 152.653 48.9723C152.267 49.0443 151.88 49.1117 151.493 49.1747C151.106 49.2287 150.755 49.2782 150.44 49.3232C149.766 49.4221 149.176 49.5795 148.673 49.7955C148.169 50.0114 147.777 50.3037 147.499 50.6726C147.22 51.0324 147.08 51.4822 147.08 52.022C147.08 52.8047 147.364 53.4029 147.93 53.8168C148.506 54.2216 149.235 54.424 150.116 54.424ZM170.351 30.3636V58H164.603V30.3636H170.351ZM193.116 58.4048C190.993 58.4048 189.167 57.955 187.637 57.0554C186.117 56.1468 184.948 54.8873 184.129 53.277C183.319 51.6667 182.914 49.8134 182.914 47.7173C182.914 45.5942 183.324 43.732 184.142 42.1307C184.97 40.5204 186.144 39.2654 187.664 38.3658C189.185 37.4571 190.993 37.0028 193.089 37.0028C194.897 37.0028 196.481 37.3312 197.839 37.9879C199.198 38.6446 200.273 39.5668 201.064 40.7543C201.856 41.9418 202.292 43.3362 202.373 44.9375H196.949C196.796 43.9029 196.391 43.0708 195.734 42.4411C195.086 41.8023 194.236 41.483 193.184 41.483C192.293 41.483 191.515 41.7259 190.849 42.2116C190.192 42.6884 189.68 43.3857 189.311 44.3033C188.942 45.2209 188.757 46.3319 188.757 47.6364C188.757 48.9588 188.937 50.0833 189.297 51.0099C189.666 51.9366 190.183 52.6428 190.849 53.1286C191.515 53.6143 192.293 53.8572 193.184 53.8572C193.84 53.8572 194.43 53.7223 194.951 53.4524C195.482 53.1825 195.918 52.7912 196.26 52.2784C196.611 51.7566 196.841 51.1314 196.949 50.4027H202.373C202.283 51.986 201.851 53.3804 201.078 54.5859C200.313 55.7824 199.256 56.718 197.907 57.3928C196.557 58.0675 194.96 58.4048 193.116 58.4048ZM215.5 58.4048C213.368 58.4048 211.532 57.973 209.994 57.1094C208.465 56.2367 207.286 55.0043 206.459 53.4119C205.631 51.8106 205.217 49.9169 205.217 47.7308C205.217 45.5987 205.631 43.7275 206.459 42.1172C207.286 40.5069 208.451 39.2519 209.954 38.3523C211.465 37.4527 213.237 37.0028 215.27 37.0028C216.638 37.0028 217.911 37.2232 219.089 37.6641C220.277 38.0959 221.311 38.7481 222.193 39.6207C223.084 40.4934 223.776 41.5909 224.271 42.9134C224.766 44.2268 225.013 45.7652 225.013 47.5284V49.1072H207.511V45.5447H219.602C219.602 44.7171 219.422 43.9839 219.062 43.3452C218.702 42.7064 218.203 42.2071 217.564 41.8473C216.935 41.4785 216.202 41.294 215.365 41.294C214.492 41.294 213.719 41.4964 213.044 41.9013C212.378 42.2971 211.856 42.8324 211.479 43.5071C211.101 44.1728 210.907 44.915 210.898 45.7337V49.1207C210.898 50.1463 211.087 51.0324 211.465 51.7791C211.852 52.5258 212.396 53.1016 213.098 53.5064C213.8 53.9112 214.632 54.1136 215.594 54.1136C216.233 54.1136 216.818 54.0237 217.349 53.8438C217.879 53.6638 218.334 53.3939 218.711 53.0341C219.089 52.6742 219.377 52.2334 219.575 51.7116L224.892 52.0625C224.622 53.34 224.069 54.4555 223.232 55.4091C222.404 56.3537 221.334 57.0914 220.02 57.6222C218.716 58.1439 217.209 58.4048 215.5 58.4048ZM234.513 46.017V58H228.765V37.2727H234.243V40.9297H234.486C234.945 39.7242 235.714 38.7706 236.794 38.0689C237.873 37.3582 239.182 37.0028 240.721 37.0028C242.16 37.0028 243.415 37.3177 244.486 37.9474C245.556 38.5772 246.388 39.4768 246.982 40.6463C247.576 41.8068 247.873 43.1922 247.873 44.8026V58H242.124V45.8281C242.133 44.5597 241.809 43.5701 241.153 42.8594C240.496 42.1397 239.592 41.7798 238.44 41.7798C237.666 41.7798 236.983 41.9463 236.389 42.2791C235.804 42.612 235.345 43.0978 235.013 43.7365C234.689 44.3662 234.522 45.1264 234.513 46.017ZM263.428 37.2727V41.5909H250.946V37.2727H263.428ZM253.78 32.3068H259.528V51.6307C259.528 52.1615 259.609 52.5753 259.771 52.8722C259.933 53.16 260.158 53.3625 260.446 53.4794C260.743 53.5964 261.085 53.6548 261.472 53.6548C261.741 53.6548 262.011 53.6323 262.281 53.5874C262.551 53.5334 262.758 53.4929 262.902 53.4659L263.806 57.7436C263.518 57.8336 263.113 57.937 262.592 58.054C262.07 58.1799 261.436 58.2564 260.689 58.2834C259.304 58.3374 258.089 58.1529 257.045 57.7301C256.011 57.3073 255.206 56.6506 254.63 55.7599C254.054 54.8693 253.771 53.7448 253.78 52.3864V32.3068ZM267.173 58V37.2727H272.746V40.8892H272.962C273.34 39.6027 273.974 38.6312 274.865 37.9744C275.755 37.3087 276.781 36.9759 277.941 36.9759C278.229 36.9759 278.54 36.9938 278.873 37.0298C279.205 37.0658 279.498 37.1153 279.75 37.1783V42.2791C279.48 42.1982 279.106 42.1262 278.63 42.0632C278.153 42.0002 277.717 41.9688 277.321 41.9688C276.475 41.9688 275.719 42.1532 275.054 42.522C274.397 42.8819 273.875 43.3857 273.488 44.0334C273.11 44.6811 272.922 45.4278 272.922 46.2734V58H267.173ZM291.122 58.4048C289.026 58.4048 287.213 57.9595 285.684 57.0689C284.163 56.1693 282.989 54.9188 282.162 53.3175C281.334 51.7071 280.92 49.8404 280.92 47.7173C280.92 45.5762 281.334 43.705 282.162 42.1037C282.989 40.4934 284.163 39.2429 285.684 38.3523C287.213 37.4527 289.026 37.0028 291.122 37.0028C293.218 37.0028 295.026 37.4527 296.547 38.3523C298.076 39.2429 299.255 40.4934 300.082 42.1037C300.91 43.705 301.324 45.5762 301.324 47.7173C301.324 49.8404 300.91 51.7071 300.082 53.3175C299.255 54.9188 298.076 56.1693 296.547 57.0689C295.026 57.9595 293.218 58.4048 291.122 58.4048ZM291.149 53.9517C292.103 53.9517 292.899 53.6818 293.537 53.142C294.176 52.5933 294.657 51.8466 294.981 50.902C295.314 49.9574 295.481 48.8823 295.481 47.6768C295.481 46.4714 295.314 45.3963 294.981 44.4517C294.657 43.5071 294.176 42.7604 293.537 42.2116C292.899 41.6629 292.103 41.3885 291.149 41.3885C290.186 41.3885 289.377 41.6629 288.72 42.2116C288.072 42.7604 287.582 43.5071 287.249 44.4517C286.925 45.3963 286.763 46.4714 286.763 47.6768C286.763 48.8823 286.925 49.9574 287.249 50.902C287.582 51.8466 288.072 52.5933 288.72 53.142C289.377 53.6818 290.186 53.9517 291.149 53.9517Z" fill="white"/>
</g>
<defs>
<filter id="filter0_d_485_119" x="0.904175" y="30.3636" width="304.42" height="36.0412" filterUnits="userSpaceOnUse" color-interpolation-filters="sRGB">
<feFlood flood-opacity="0" result="BackgroundImageFix"/>
<feColorMatrix in="SourceAlpha" type="matrix" values="0 0 0 0 0 0 0 0 0 0 0 0 0 0 0 0 0 0 127 0" result="hardAlpha"/>
<feOffset dy="4"/>
<feGaussianBlur stdDeviation="2"/>
<feComposite in2="hardAlpha" operator="out"/>
<feColorMatrix type="matrix" values="0 0 0 0 0 0 0 0 0 0 0 0 0 0 0 0 0 0 0.25 0"/>
<feBlend mode="normal" in2="BackgroundImageFix" result="effect1_dropShadow_485_119"/>
<feBlend mode="normal" in="SourceGraphic" in2="effect1_dropShadow_485_119" result="shape"/>
</filter>
</defs>
</svg>
