<svg width="22" height="22" viewBox="0 0 22 22" fill="none" xmlns="http://www.w3.org/2000/svg">
<rect x="0.5" y="0.5" width="21" height="21" rx="3.5" stroke="#393F3F"/>
<rect x="6" y="7" width="2" height="12" fill="#393F3F"/>
<rect x="6" y="7" width="2" height="12" fill="#393F3F"/>
<rect x="6" y="7" width="2" height="12" fill="#393F3F"/>
<rect x="7" y="7" width="9" height="1" fill="#393F3F"/>
<rect x="7" y="7" width="9" height="1" fill="#393F3F"/>
<rect x="7" y="7" width="9" height="1" fill="#393F3F"/>
<path d="M7 7C7 6.44772 7.44772 6 8 6H15C15.5523 6 16 6.44772 16 7V7H7V7Z" fill="#393F3F"/>
<path d="M7 7C7 6.44772 7.44772 6 8 6H15C15.5523 6 16 6.44772 16 7V7H7V7Z" fill="#393F3F"/>
<path d="M7 7C7 6.44772 7.44772 6 8 6H15C15.5523 6 16 6.44772 16 7V7H7V7Z" fill="#D9D9D9"/>
<path d="M9 6C9 5.44772 9.44772 5 10 5H14C14.5523 5 15 5.44772 15 6V6H9V6Z" fill="#393F3F"/>
<path d="M9 6C9 5.44772 9.44772 5 10 5H14C14.5523 5 15 5.44772 15 6V6H9V6Z" fill="#393F3F"/>
<path d="M9 6C9 5.44772 9.44772 5 10 5H14C14.5523 5 15 5.44772 15 6V6H9V6Z" fill="#D9D9D9"/>
<path d="M10 5C10 4.44772 10.4477 4 11 4H12C12.5523 4 13 4.44772 13 5V5H10V5Z" fill="#393F3F"/>
<path d="M10 5C10 4.44772 10.4477 4 11 4H12C12.5523 4 13 4.44772 13 5V5H10V5Z" fill="#393F3F"/>
<path d="M10 5C10 4.44772 10.4477 4 11 4H12C12.5523 4 13 4.44772 13 5V5H10V5Z" fill="#D9D9D9"/>
<path d="M9 9H10V16V16C9.44772 16 9 15.5523 9 15V9Z" fill="#393F3F"/>
<path d="M9 9H10V16V16C9.44772 16 9 15.5523 9 15V9Z" fill="#393F3F"/>
<path d="M9 9H10V16V16C9.44772 16 9 15.5523 9 15V9Z" fill="#393F3F"/>
<rect x="11" y="9" width="1" height="7" fill="#393F3F"/>
<rect x="11" y="9" width="1" height="7" fill="#393F3F"/>
<rect x="11" y="9" width="1" height="7" fill="#393F3F"/>
<path d="M13 9V9C13.5523 9 14 9.44772 14 10V16H13V9Z" fill="#393F3F"/>
<path d="M13 9V9C13.5523 9 14 9.44772 14 10V16H13V9Z" fill="#393F3F"/>
<path d="M13 9V9C13.5523 9 14 9.44772 14 10V16H13V9Z" fill="#393F3F"/>
<rect x="15" y="7" width="2" height="12" rx="1" fill="#393F3F"/>
<rect x="15" y="7" width="2" height="12" rx="1" fill="#393F3F"/>
<rect x="15" y="7" width="2" height="12" rx="1" fill="#393F3F"/>
<rect x="4" y="9" width="1" height="8" rx="0.5" fill="#393F3F"/>
<rect x="4" y="9" width="3" height="1" rx="0.5" fill="#393F3F"/>
<rect x="4" y="16" width="3" height="1" rx="0.5" fill="#393F3F"/>
<rect x="7" y="17" width="10" height="2" rx="1" fill="#393F3F"/>
</svg>
