<svg width="22" height="22" viewBox="0 0 22 22" fill="none" xmlns="http://www.w3.org/2000/svg">
<rect x="0.5" y="0.5" width="21" height="21" rx="3.5" stroke="#393F3F"/>
<path fill-rule="evenodd" clip-rule="evenodd" d="M14.7273 9H6C6 9.92874 6 10.3931 6.04401 10.7838C6.40968 14.0291 8.97091 16.5903 12.2162 16.956C12.6069 17 13.0713 17 14 17H14.7273V14.326C14.814 14.3505 14.9055 14.3636 15 14.3636H15.1818C15.7341 14.3636 16.1818 13.9159 16.1818 13.3636V11C16.1818 10.4477 15.7341 10 15.1818 10H15C14.9055 10 14.814 10.0131 14.7273 10.0376V9ZM14.7273 10.0376C14.3075 10.1564 14 10.5423 14 11V13.3636C14 13.8214 14.3075 14.2073 14.7273 14.326V10.0376Z" fill="#393F3F"/>
<rect x="7" y="4" width="1" height="4" rx="0.5" fill="#D9D9D9"/>
<rect x="10" y="4" width="1" height="4" rx="0.5" fill="#D9D9D9"/>
<rect x="13" y="4" width="1" height="4" rx="0.5" fill="#D9D9D9"/>
</svg>
