<svg width="117" height="139" viewBox="0 0 117 139" fill="none" xmlns="http://www.w3.org/2000/svg">
<path d="M53.3992 0H18.4905V9.5752H8.44823L3.98501 20.7463L8.44823 28.4064L11.6362 42.2905L6.21662 59.3662L11.6362 75.9633L0 78.1975L8.44823 106.923H18.4905L22.1567 117.775L26.1417 125.914H32.6771L44.3134 139L50.53 136.766L61.0504 109.796L70.1362 115.7L80.3379 117.775L91.9741 120.009L96.2779 111.711H107.914L103.451 86.1768L117 61.9196L91.9741 47.7164L82.8883 25.5339L53.3992 0Z" fill="#C7FFFF"/>
<g filter="url(#filter0_d_692_275)">
<path d="M51.0862 46H63.3448V47.8701L62.569 49.7403L62.7241 53.3247H61.3276L61.6379 55.3506L62.1034 57.8442L61.6379 58.1558L61.3276 59.0909L58.069 59.4026V61.7403L60.5517 66.5714L62.7241 67.974H64.2759V68.7532L63.8103 70H63.1897V72.1818L63.9655 72.961L65.0517 72.8052L65.6724 73.2727V73.5844L66.2931 74.3636L67.3793 74.0519L68 76.3896L66.4483 76.7013L67.069 77.6364L63.9655 77.9481L63.5 79.6623H62.7241V80.7532H60.5517L58.8448 81.0649L57.6034 82L57.1379 80.7532L57.6034 79.1948H58.3793L58.069 78.5714L58.3793 76.7013L57.6034 75.7662L58.069 74.987L57.6034 74.5195L56.5172 74.987L56.2069 72.8052L55.8966 71.7143L56.5172 71.2468L54.3448 70L54.6552 69.5325L53.7241 68.2857H54.3448L52.9483 66.7273L52.0172 67.3506H51.0862L50.6207 66.7273L51.0862 65.6364V61.2727L50 60.3377L52.0172 58.1558V50.3636L51.0862 46Z" fill="#FA9939"/>
</g>
<defs>
<filter id="filter0_d_692_275" x="46" y="46" width="26" height="44" filterUnits="userSpaceOnUse" color-interpolation-filters="sRGB">
<feFlood flood-opacity="0" result="BackgroundImageFix"/>
<feColorMatrix in="SourceAlpha" type="matrix" values="0 0 0 0 0 0 0 0 0 0 0 0 0 0 0 0 0 0 127 0" result="hardAlpha"/>
<feOffset dy="4"/>
<feGaussianBlur stdDeviation="2"/>
<feComposite in2="hardAlpha" operator="out"/>
<feColorMatrix type="matrix" values="0 0 0 0 0 0 0 0 0 0 0 0 0 0 0 0 0 0 0.25 0"/>
<feBlend mode="normal" in2="BackgroundImageFix" result="effect1_dropShadow_692_275"/>
<feBlend mode="normal" in="SourceGraphic" in2="effect1_dropShadow_692_275" result="shape"/>
</filter>
</defs>
</svg>
