<svg width="22" height="22" viewBox="0 0 22 22" fill="none" xmlns="http://www.w3.org/2000/svg">
<rect x="0.5" y="0.5" width="21" height="21" rx="3.5" stroke="#393F3F"/>
<path d="M6 7C6 5.89543 6.89543 5 8 5V17H6V7Z" fill="#393F3F"/>
<path d="M6 7C6 5.89543 6.89543 5 8 5V17H6V7Z" fill="#393F3F"/>
<path d="M6 7C6 5.89543 6.89543 5 8 5V17H6V7Z" fill="#393F3F"/>
<path d="M12 5.5C12 5.22386 12.2239 5 12.5 5C12.7761 5 13 5.22386 13 5.5V9H12V5.5Z" fill="#393F3F"/>
<path d="M12 5.5C12 5.22386 12.2239 5 12.5 5C12.7761 5 13 5.22386 13 5.5V9H12V5.5Z" fill="#393F3F"/>
<path d="M12 5.5C12 5.22386 12.2239 5 12.5 5C12.7761 5 13 5.22386 13 5.5V9H12V5.5Z" fill="#393F3F"/>
<path d="M16 5.5C16 5.22386 16.2239 5 16.5 5C16.7761 5 17 5.22386 17 5.5V9H16V5.5Z" fill="#393F3F"/>
<path d="M16 5.5C16 5.22386 16.2239 5 16.5 5C16.7761 5 17 5.22386 17 5.5V9H16V5.5Z" fill="#393F3F"/>
<path d="M16 5.5C16 5.22386 16.2239 5 16.5 5C16.7761 5 17 5.22386 17 5.5V9H16V5.5Z" fill="#393F3F"/>
<path d="M14 5.5C14 5.22386 14.2239 5 14.5 5C14.7761 5 15 5.22386 15 5.5V11H14V5.5Z" fill="#393F3F"/>
<path d="M14 5.5C14 5.22386 14.2239 5 14.5 5C14.7761 5 15 5.22386 15 5.5V11H14V5.5Z" fill="#393F3F"/>
<path d="M14 5.5C14 5.22386 14.2239 5 14.5 5C14.7761 5 15 5.22386 15 5.5V11H14V5.5Z" fill="#393F3F"/>
<rect x="14" y="9" width="1" height="8" rx="0.5" fill="#393F3F"/>
<rect x="14" y="9" width="1" height="8" rx="0.5" fill="#393F3F"/>
<rect x="14" y="9" width="1" height="8" rx="0.5" fill="#393F3F"/>
<path d="M14 11C12.8954 11 12 10.1046 12 9H17C17 10.1046 16.1046 11 15 11H14Z" fill="#393F3F"/>
<path d="M14 11C12.8954 11 12 10.1046 12 9H17C17 10.1046 16.1046 11 15 11H14Z" fill="#393F3F"/>
<path d="M14 11C12.8954 11 12 10.1046 12 9H17C17 10.1046 16.1046 11 15 11H14Z" fill="#393F3F"/>
</svg>
